<svg xmlns="http://www.w3.org/2000/svg" version="1.1" xmlns:xlink="http://www.w3.org/1999/xlink" xmlns:svgjs="http://svgjs.dev/svgjs" width="2000" height="681" viewBox="0 0 2000 681"><g transform="matrix(1,0,0,1,-1.2121212121212466,-0.2800669504006805)"><svg viewBox="0 0 396 135" data-background-color="#ffffff" preserveAspectRatio="xMidYMid meet" height="681" width="2000" xmlns="http://www.w3.org/2000/svg" xmlns:xlink="http://www.w3.org/1999/xlink"><g id="tight-bounds" transform="matrix(1,0,0,1,0.2400000000000091,0.055519880035376445)"><svg viewBox="0 0 395.52 134.88896023992925" height="134.88896023992925" width="395.52"><g><svg viewBox="0 0 395.52 134.88896023992925" height="134.88896023992925" width="395.52"><g><svg viewBox="0 0 643.1853199041676 219.35325405405402" height="134.88896023992925" width="395.52"><g transform="matrix(1,0,0,1,247.66531990416763,0)"><svg viewBox="0 0 395.52 219.35325405405402" height="219.35325405405402" width="395.52"><g id="textblocktransform"><svg viewBox="0 0 395.52 219.35325405405402" height="219.35325405405402" width="395.52" id="textblock"><g><svg viewBox="0 0 395.52 219.35325405405402" height="219.35325405405402" width="395.52"><g transform="matrix(1,0,0,1,0,0)"><svg width="395.52" viewBox="2.1499999999999986 -35.6 232.95 121.5" height="219.35325405405402" data-palette-color="#058e3f"><svg></svg><svg></svg><svg></svg><g class="wordmark-text-0" data-fill-palette-color="primary" id="text-0"><path d="M44.1-35.6c4.133 0 7.35 1.207 9.65 3.62 2.3 2.42 3.45 5.913 3.45 10.48v0 21.5h-8.1v-21.25c0-2.467-0.64-4.327-1.92-5.58-1.287-1.247-2.98-1.87-5.08-1.87v0c-2.3 0-4.133 0.657-5.5 1.97-1.367 1.32-2.05 3.313-2.05 5.98v0 20.75h-8.1v-21.25c0-2.467-0.6-4.327-1.8-5.58-1.2-1.247-2.833-1.87-4.9-1.87v0c-2.267 0-4.083 0.657-5.45 1.97-1.367 1.32-2.05 3.313-2.05 5.98v0 20.75h-8.1v-35h7.85v4.3c1.067-1.567 2.483-2.777 4.25-3.63 1.767-0.847 3.8-1.27 6.1-1.27v0c2.4 0 4.5 0.443 6.3 1.33 1.8 0.88 3.183 2.153 4.15 3.82v0c1.2-1.667 2.773-2.94 4.72-3.82 1.953-0.887 4.147-1.33 6.58-1.33zM78.2-5.85c1.4 0 2.643-0.21 3.73-0.63 1.08-0.413 2.087-1.07 3.02-1.97v0l4.15 4.5c-2.533 2.9-6.233 4.35-11.1 4.35v0c-3.033 0-5.717-0.593-8.05-1.78-2.333-1.18-4.133-2.82-5.4-4.92-1.267-2.1-1.9-4.483-1.9-7.15v0c0-2.633 0.627-5.01 1.88-7.13 1.247-2.113 2.963-3.763 5.15-4.95 2.18-1.18 4.637-1.77 7.37-1.77v0c2.567 0 4.9 0.54 7 1.62 2.1 1.087 3.777 2.653 5.03 4.7 1.247 2.053 1.87 4.48 1.87 7.28v0l-19.9 3.85c0.567 1.333 1.46 2.333 2.68 3 1.213 0.667 2.703 1 4.47 1zM77.05-21.4c-1.967 0-3.567 0.633-4.8 1.9-1.233 1.267-1.883 3.017-1.95 5.25v0l13.1-2.55c-0.367-1.4-1.117-2.517-2.25-3.35-1.133-0.833-2.5-1.25-4.1-1.25zM105.25 0.4c-2.233 0-4.417-0.277-6.55-0.83-2.133-0.547-3.833-1.237-5.1-2.07v0l2.6-5.6c1.2 0.767 2.65 1.39 4.35 1.87 1.7 0.487 3.367 0.73 5 0.73v0c3.3 0 4.95-0.817 4.95-2.45v0c0-0.767-0.45-1.317-1.35-1.65-0.9-0.333-2.283-0.617-4.15-0.85v0c-2.2-0.333-4.017-0.717-5.45-1.15-1.433-0.433-2.673-1.2-3.72-2.3-1.053-1.1-1.58-2.667-1.58-4.7v0c0-1.7 0.493-3.21 1.48-4.53 0.98-1.313 2.413-2.337 4.3-3.07 1.88-0.733 4.103-1.1 6.67-1.1v0c1.9 0 3.793 0.207 5.68 0.62 1.88 0.42 3.437 0.997 4.67 1.73v0l-2.6 5.55c-2.367-1.333-4.95-2-7.75-2v0c-1.667 0-2.917 0.233-3.75 0.7-0.833 0.467-1.25 1.067-1.25 1.8v0c0 0.833 0.45 1.417 1.35 1.75 0.9 0.333 2.333 0.65 4.3 0.95v0c2.2 0.367 4 0.757 5.4 1.17 1.4 0.42 2.617 1.18 3.65 2.28 1.033 1.1 1.55 2.633 1.55 4.6v0c0 1.667-0.5 3.15-1.5 4.45-1 1.3-2.457 2.307-4.37 3.02-1.92 0.72-4.197 1.08-6.83 1.08z" fill="#058e3f" fill-rule="nonzero" stroke="none" stroke-width="1" stroke-linecap="butt" stroke-linejoin="miter" stroke-miterlimit="10" stroke-dasharray="" stroke-dashoffset="0" font-family="none" font-weight="none" font-size="none" text-anchor="none" style="mix-blend-mode: normal" data-fill-palette-color="primary" opacity="1"></path><path transform="translate(0,42.75)" d="M20.45-28.7c-2.8 0-4.917 0.607-6.35 1.82-1.433 1.22-2.15 3.047-2.15 5.48v0 2.15h14.4v6.5h-14.4v12.75h-8.1v-21.35c0-4.5 1.41-8 4.23-10.5 2.813-2.5 6.753-3.75 11.82-3.75v0c2 0 3.883 0.207 5.65 0.62 1.767 0.42 3.3 1.03 4.6 1.83v0l-2.5 6.4c-2-1.3-4.4-1.95-7.2-1.95zM33.35 0v-26.9h7.8v26.9zM37.25-30.65c-1.433 0-2.6-0.417-3.5-1.25-0.9-0.833-1.35-1.867-1.35-3.1v0c0-1.233 0.45-2.267 1.35-3.1 0.9-0.833 2.067-1.25 3.5-1.25v0c1.433 0 2.6 0.4 3.5 1.2 0.9 0.8 1.35 1.8 1.35 3v0c0 1.3-0.45 2.373-1.35 3.22-0.9 0.853-2.067 1.28-3.5 1.28zM64.75-27.3c3.333 0 6.027 1 8.08 3 2.047 2 3.07 4.967 3.07 8.9v0 15.4h-7.8v-14.2c0-2.133-0.467-3.727-1.4-4.78-0.933-1.047-2.283-1.57-4.05-1.57v0c-1.967 0-3.533 0.607-4.7 1.82-1.167 1.22-1.75 3.03-1.75 5.43v0 13.3h-7.8v-26.9h7.45v3.15c1.033-1.133 2.317-2.01 3.85-2.63 1.533-0.613 3.217-0.92 5.05-0.92zM102.75-26.9h7.8v26.9h-7.45v-3.1c-1.933 2.333-4.733 3.5-8.4 3.5v0c-2.533 0-4.827-0.567-6.88-1.7-2.047-1.133-3.653-2.75-4.82-4.85-1.167-2.1-1.75-4.533-1.75-7.3v0c0-2.767 0.583-5.2 1.75-7.3 1.167-2.1 2.773-3.717 4.82-4.85 2.053-1.133 4.347-1.7 6.88-1.7v0c3.433 0 6.117 1.083 8.05 3.25v0zM96.05-6c1.967 0 3.6-0.677 4.9-2.03 1.3-1.347 1.95-3.153 1.95-5.42v0c0-2.267-0.65-4.077-1.95-5.43-1.3-1.347-2.933-2.02-4.9-2.02v0c-2 0-3.65 0.673-4.95 2.02-1.3 1.353-1.95 3.163-1.95 5.43v0c0 2.267 0.65 4.073 1.95 5.42 1.3 1.353 2.95 2.03 4.95 2.03zM134.1-27.3c3.333 0 6.023 1 8.07 3 2.053 2 3.08 4.967 3.08 8.9v0 15.4h-7.8v-14.2c0-2.133-0.467-3.727-1.4-4.78-0.933-1.047-2.283-1.57-4.05-1.57v0c-1.967 0-3.533 0.607-4.7 1.82-1.167 1.22-1.75 3.03-1.75 5.43v0 13.3h-7.8v-26.9h7.45v3.15c1.033-1.133 2.317-2.01 3.85-2.63 1.533-0.613 3.217-0.92 5.05-0.92zM165.6 0.4c-2.867 0-5.44-0.593-7.72-1.78-2.287-1.18-4.07-2.82-5.35-4.92-1.287-2.1-1.93-4.483-1.93-7.15v0c0-2.667 0.643-5.05 1.93-7.15 1.28-2.1 3.063-3.743 5.35-4.93 2.28-1.18 4.853-1.77 7.72-1.77v0c2.833 0 5.31 0.59 7.43 1.77 2.113 1.187 3.653 2.88 4.62 5.08v0l-6.05 3.25c-1.4-2.467-3.417-3.7-6.05-3.7v0c-2.033 0-3.717 0.667-5.05 2-1.333 1.333-2 3.15-2 5.45v0c0 2.3 0.667 4.117 2 5.45 1.333 1.333 3.017 2 5.05 2v0c2.667 0 4.683-1.233 6.05-3.7v0l6.05 3.3c-0.967 2.133-2.507 3.8-4.62 5-2.12 1.2-4.597 1.8-7.43 1.8zM195.35-5.85c1.4 0 2.643-0.21 3.73-0.63 1.08-0.413 2.087-1.07 3.02-1.97v0l4.15 4.5c-2.533 2.9-6.233 4.35-11.1 4.35v0c-3.033 0-5.717-0.593-8.05-1.78-2.333-1.18-4.133-2.82-5.4-4.92-1.267-2.1-1.9-4.483-1.9-7.15v0c0-2.633 0.627-5.01 1.88-7.13 1.247-2.113 2.963-3.763 5.15-4.95 2.18-1.18 4.637-1.77 7.37-1.77v0c2.567 0 4.9 0.54 7 1.62 2.1 1.087 3.777 2.653 5.03 4.7 1.247 2.053 1.87 4.48 1.87 7.28v0l-19.9 3.85c0.567 1.333 1.46 2.333 2.68 3 1.213 0.667 2.703 1 4.47 1zM194.2-21.4c-1.967 0-3.567 0.633-4.8 1.9-1.233 1.267-1.883 3.017-1.95 5.25v0l13.1-2.55c-0.367-1.4-1.117-2.517-2.25-3.35-1.133-0.833-2.5-1.25-4.1-1.25zM222.4 0.4c-2.233 0-4.417-0.277-6.55-0.83-2.133-0.547-3.833-1.237-5.1-2.07v0l2.6-5.6c1.2 0.767 2.65 1.39 4.35 1.87 1.7 0.487 3.367 0.73 5 0.73v0c3.3 0 4.95-0.817 4.95-2.45v0c0-0.767-0.45-1.317-1.35-1.65-0.9-0.333-2.283-0.617-4.15-0.85v0c-2.2-0.333-4.017-0.717-5.45-1.15-1.433-0.433-2.673-1.2-3.72-2.3-1.053-1.1-1.58-2.667-1.58-4.7v0c0-1.7 0.493-3.21 1.48-4.53 0.98-1.313 2.413-2.337 4.3-3.07 1.88-0.733 4.103-1.1 6.67-1.1v0c1.9 0 3.793 0.207 5.68 0.62 1.88 0.42 3.437 0.997 4.67 1.73v0l-2.6 5.55c-2.367-1.333-4.95-2-7.75-2v0c-1.667 0-2.917 0.233-3.75 0.7-0.833 0.467-1.25 1.067-1.25 1.8v0c0 0.833 0.45 1.417 1.35 1.75 0.9 0.333 2.333 0.65 4.3 0.95v0c2.2 0.367 4 0.757 5.4 1.17 1.4 0.42 2.617 1.18 3.65 2.28 1.033 1.1 1.55 2.633 1.55 4.6v0c0 1.667-0.5 3.15-1.5 4.45-1 1.3-2.457 2.307-4.37 3.02-1.92 0.72-4.197 1.08-6.83 1.08z" fill="#058e3f" fill-rule="nonzero" stroke="none" stroke-width="1" stroke-linecap="butt" stroke-linejoin="miter" stroke-miterlimit="10" stroke-dasharray="" stroke-dashoffset="0" font-family="none" font-weight="none" font-size="none" text-anchor="none" style="mix-blend-mode: normal" data-fill-palette-color="primary" opacity="1"></path><path transform="translate(0,85.5)" d="M12.45-6.5h20.3v6.5h-30.6v-4.7l8.3-10.1h-5.55v-6.05h10.5l6.3-7.65h-19.2v-6.5h29.5v4.65l-7.9 9.65h5.1v6h-10zM50.85-5.85c1.4 0 2.643-0.21 3.73-0.63 1.08-0.413 2.087-1.07 3.02-1.97v0l4.15 4.5c-2.533 2.9-6.233 4.35-11.1 4.35v0c-3.033 0-5.717-0.593-8.05-1.78-2.333-1.18-4.133-2.82-5.4-4.92-1.267-2.1-1.9-4.483-1.9-7.15v0c0-2.633 0.627-5.01 1.88-7.13 1.247-2.113 2.963-3.763 5.15-4.95 2.18-1.18 4.637-1.77 7.37-1.77v0c2.567 0 4.9 0.54 7 1.62 2.1 1.087 3.777 2.653 5.03 4.7 1.247 2.053 1.87 4.48 1.87 7.28v0l-19.9 3.85c0.567 1.333 1.46 2.333 2.68 3 1.213 0.667 2.703 1 4.47 1zM49.7-21.4c-1.967 0-3.567 0.633-4.8 1.9-1.233 1.267-1.883 3.017-1.95 5.25v0l13.1-2.55c-0.367-1.4-1.117-2.517-2.25-3.35-1.133-0.833-2.5-1.25-4.1-1.25zM85.2-27.3c3.333 0 6.027 1 8.08 3 2.047 2 3.07 4.967 3.07 8.9v0 15.4h-7.8v-14.2c0-2.133-0.467-3.727-1.4-4.78-0.933-1.047-2.283-1.57-4.05-1.57v0c-1.967 0-3.533 0.607-4.7 1.82-1.167 1.22-1.75 3.03-1.75 5.43v0 13.3h-7.8v-26.9h7.45v3.15c1.033-1.133 2.317-2.01 3.85-2.63 1.533-0.613 3.217-0.92 5.05-0.92z" fill="#058e3f" fill-rule="nonzero" stroke="none" stroke-width="1" stroke-linecap="butt" stroke-linejoin="miter" stroke-miterlimit="10" stroke-dasharray="" stroke-dashoffset="0" font-family="none" font-weight="none" font-size="none" text-anchor="none" style="mix-blend-mode: normal" data-fill-palette-color="primary" opacity="1"></path></g></svg></g></svg></g></svg></g></svg></g><g transform="matrix(1,0,0,1,0,1.8939907978404875)"><svg viewBox="0 0 215.56527245837304 215.56527245837304" height="215.56527245837304" width="215.56527245837304"><g><svg></svg></g><g id="icon-0"><svg viewBox="0 0 215.56527245837304 215.56527245837304" height="215.56527245837304" width="215.56527245837304"><g><path d="M0 107.783c0-59.527 48.256-107.783 107.783-107.783 59.527 0 107.783 48.256 107.782 107.783 0 59.527-48.256 107.783-107.782 107.782-59.527 0-107.783-48.256-107.783-107.782zM107.783 209.434c56.141 0 101.652-45.511 101.651-101.651 0-56.141-45.511-101.652-101.651-101.652-56.141 0-101.652 45.511-101.652 101.652 0 56.141 45.511 101.652 101.652 101.651z" data-fill-palette-color="accent" fill="#058e3f" stroke="transparent"></path></g><g transform="matrix(1,0,0,1,56.20755015168385,56.20755015168386)"><svg viewBox="0 0 103.15017215500535 103.15017215500532" height="103.15017215500532" width="103.15017215500535"><g><svg xmlns="http://www.w3.org/2000/svg" xmlns:xlink="http://www.w3.org/1999/xlink" version="1.0" x="0" y="0" viewBox="5 5 90.00000000000001 90" enable-background="new 0 0 100 100" xml:space="preserve" height="103.15017215500532" width="103.15017215500535" class="icon-cg-0" data-fill-palette-color="accent" id="cg-0"><g fill="#058e3f" data-fill-palette-color="accent"><path fill="#058e3f" d="M94.985 58.17C94.665 46.755 87.642 40 76.053 40H26.908C18.082 40 10 32.165 10 23.947v-0.592C10 16.661 16.16 10 26.908 10h49.145C84.58 10 90 14.828 90 23.355v16.579c0 1.308 0.692 2.368 2 2.368s2-1.06 2-2.368V23.355C94 12.205 87.203 5 76.053 5H26.908C21.477 5 16.054 6.748 12.03 9.795 7.496 13.228 5 18.043 5 23.355v49.737C5 84.148 15.852 95 26.908 95h49.737c5.312 0 10.128-2.496 13.56-7.03 1.893-2.5 3.284-5.541 4.066-8.788 0.053-0.156 0.089-0.319 0.109-0.488 0.404-1.828 0.62-3.714 0.62-5.603V58.289C95 58.237 94.988 58.222 94.985 58.17zM90 58.956v14.137C90 74.119 90.199 75 90.079 76h-7.846C77.519 76 74 72.218 74 67.504V67.43c0-4.714 3.519-8.43 8.233-8.43h8.028C90.261 59 90 58.93 90 58.956zM76.645 90H26.908C18.403 90 10 81.597 10 73.092V36.324C14 41.294 20.206 45 26.908 45h49.145c7.416 0 12.132 3 13.663 9h-7.483C74.907 54 69 60.105 69 67.43v0.074C69 74.83 74.907 81 82.233 81h6.66C86.547 87 81.536 90 76.645 90z" data-fill-palette-color="accent"></path><path fill="#058e3f" d="M82.566 16H17.434c-1.308 0-2.368 1.192-2.368 2.5s1.06 2.5 2.368 2.5h65.132c1.308 0 2.368-1.192 2.368-2.5S83.874 16 82.566 16z" data-fill-palette-color="accent"></path><path fill="#058e3f" d="M82.566 26H17.434c-1.308 0-2.368 0.692-2.368 2s1.06 2 2.368 2h65.132c1.308 0 2.368-0.692 2.368-2S83.874 26 82.566 26z" data-fill-palette-color="accent"></path><circle fill="#058e3f" cx="83.651" cy="67.566" r="3.2" data-fill-palette-color="accent"></circle></g></svg></g></svg></g></svg></g></svg></g></svg></g></svg></g><defs></defs></svg><rect width="395.52" height="134.88896023992925" fill="none" stroke="none" visibility="hidden"></rect></g></svg></g></svg>